{
	"asset":{
		"generator":"Khronos glTF Blender I/O v4.5.49",
		"version":"2.0"
	},
	"extensionsUsed":[
		"KHR_materials_specular"
	],
	"scene":0,
	"scenes":[
		{
			"name":"Scene",
			"nodes":[
				0,
				1
			]
		}
	],
	"nodes":[
		{
			"mesh":0,
			"name":"Cat_Low_Poly",
			"rotation":[
				0.6767500638961792,
				-0.2049616277217865,
				0.2049616128206253,
				0.6767501831054688
			],
			"scale":[
				10.014302253723145,
				10.014302253723145,
				10.014302253723145
			],
			"translation":[
				0,
				10.5841064453125,
				-11.09958267211914
			]
		},
		{
			"camera":0,
			"name":"Camera",
			"rotation":[
				-0.0662664845585823,
				0.31157398223876953,
				0.021786829456686974,
				0.9476580619812012
			],
			"translation":[
				26.68612289428711,
				17.605072021484375,
				32.29335403442383
			]
		}
	],
	"cameras":[
		{
			"name":"Camera.002",
			"perspective":{
				"aspectRatio":1.7777777777777777,
				"yfov":0.5751330172735531,
				"zfar":1000,
				"znear":0.10000000149011612
			},
			"type":"perspective"
		}
	],
	"materials":[
		{
			"doubleSided":true,
			"extensions":{
				"KHR_materials_specular":{
					"specularColorFactor":[
						2.0,
						2.0,
						2.0
					]
				}
			},
			"name":"Cat_Low_Poly",
			"pbrMetallicRoughness":{
				"baseColorFactor":[
					0.5,
					0.5,
					0.5,
					1
				]
			}
		}
	],
	"meshes":[
		{
			"name":"Cat_Low_Poly",
			"primitives":[
				{
					"attributes":{
						"POSITION":0,
						"NORMAL":1
					},
					"indices":2,
					"material":0
				}
			]
		}
	],
	"accessors":[
		{
			"bufferView":0,
			"componentType":5126,
			"count":134173,
			"max":[
				0.371635377407074,
				2.037654161453247,
				1.0375950336456299
			],
			"min":[
				-0.37069937586784363,
				-2.1899306774139404,
				-0.9244397878646851
			],
			"type":"VEC3"
		},
		{
			"bufferView":1,
			"componentType":5126,
			"count":134173,
			"type":"VEC3"
		},
		{
			"bufferView":2,
			"componentType":5125,
			"count":802374,
			"type":"SCALAR"
		}
	],
	"bufferViews":[
		{
			"buffer":0,
			"byteLength":1610076,
			"byteOffset":0,
			"target":34962
		},
		{
			"buffer":0,
			"byteLength":1610076,
			"byteOffset":1610076,
			"target":34962
		},
		{
			"buffer":0,
			"byteLength":3209496,
			"byteOffset":3220152,
			"target":34963
		}
	],
	"buffers":[
		{
			"byteLength":6429648,
			"uri":"cat-test.bin"
		}
	]
}
